<?xml version="1.0" encoding="utf-8"?>
<!-- Generator: Adobe Illustrator 19.0.0, SVG Export Plug-In . SVG Version: 6.00 Build 0)  -->
<svg version="1.1" id="Layer_1" xmlns="http://www.w3.org/2000/svg" xmlns:xlink="http://www.w3.org/1999/xlink" x="0px" y="0px"
	 width="1400px" height="980px" viewBox="0 0 1400 980" enable-background="new 0 0 1400 980" xml:space="preserve">
<g id="XMLID_28_">
	<rect id="XMLID_171_" fill="#FFFFFF" width="1400" height="980"/>
	<g id="XMLID_196_">
		<g id="XMLID_172_">
			<g id="XMLID_170_">
				<polygon id="XMLID_134_" fill="#7CC9A2" points="1176.7,519.2 202.2,519.2 237.7,418.5 1137.1,418.5 				"/>
				<rect id="XMLID_165_" x="202.2" y="519.2" fill="#A6D7B7" width="974.6" height="9.5"/>
			</g>
			<ellipse id="XMLID_164_" fill="#A5C5B3" cx="686.3" cy="470.6" rx="466.4" ry="40.1"/>
			<g id="XMLID_100_">
				<g id="XMLID_7_">
					<g id="XMLID_249_">
						<g id="XMLID_254_">
							<path id="XMLID_255_" fill="#E2B18E" d="M969.7,424.6c0,0-0.7,5.1,16.2,7.1c17,2,61.5,10.6,61.9,15.4
								c0.4,4.7-26.8,4.3-42.6,3.5c-15.8-0.8-37.1,2.1-44.2,0.5s-12.3-12.8-11.7-20.2C950,423.4,969.7,424.6,969.7,424.6z"/>
						</g>
						<g id="XMLID_252_">
							<path id="XMLID_253_" fill="#E2B18E" d="M923.6,153.4c9.3-8.4,22.5-15.2,34.2-12.1c11.7,3.1,19.4,15.4,20,37.8
								c0.6,22.4-15.8,46.3-15.2,49.9c0.5,3.7,7.9,68.3,2.1,78.3c-5.8,10-28.9,13.7-35.7,4.2c-6.8-9.5-2.6-19.1-7.4-37.2
								c-4.7-18-12.1-42.2-6.3-61.1C921,194.4,913.9,162.1,923.6,153.4z"/>
						</g>
						<g id="XMLID_250_">
							<path id="XMLID_251_" fill="#E2B18E" d="M966.5,298.4c0,0,5.5,14.7,2.1,40s-2.2,74.1,1.1,86.2c3.3,12.1-9.8,21-16.1,14.7
								c-6.3-6.3-19.5-64.1-22.1-74.6c-2.6-10.5-7.4-54.7-4.2-66.3C930.4,286.9,963.9,285.5,966.5,298.4z"/>
						</g>
					</g>
				</g>
				<path id="XMLID_16_" fill="#F6C69A" d="M1023.1,140.4c0,0-14.7-28.1-43.2-33.1c-28.5-5-44.2-6.8-63.6,4.7
					c-19.4,11.5-53.9,29.7-84.9,40.6c-30.9,10.9-38.8,16.1-64.9,15.9c-26.1-0.2-64.9,17.9-48.5,61.3c16.4,43.4,30.9,60.4,50.9,53.7
					c20-6.7,58.2-23.6,72.1-26.1c13.9-2.4,35.2-7.9,44.2-14.5c9.1-6.7,23-7.9,38.8-6.1c15.8,1.8,63.9,9.3,89.8-36L1023.1,140.4z"/>
				<g id="XMLID_10_">
					<path id="XMLID_30_" fill="#F6C69A" d="M1130.4,182.2c0,0-16.8,19.5-20.5,18.6c-3.6-0.9-8.2-2.7-10.5,0
						c-2.3,2.7-5.9,18.2-8.6,20.4s-11.8-4.1-11.8-4.1s-4.3,5.8-6.8,4.6c-5.1-2.5-0.7,4.1-7.3,2.2c-4-1.1-9.5,7.7-15,5.5
						s-15.9-23.2-23.6-23.4c-7.7-0.2-12.7-4.3-13.6-7.5c-0.9-3.2-10-71.4-10-71.4s13.2,13.2,20.5,13.2s31.4-29.6,53.6-32.7
						C1099,104.5,1139,124,1130.4,182.2z"/>
					<path id="XMLID_40_" fill="#8B3E1E" d="M1031.1,135.9c0,0,8.3,23.1,14.7,23.1c6.4,0,16.4-14.1,27.7-14.5
						c11.4-0.5,12.3,12.3,9.1,24.1c-3.2,11.8,0.5,13.6,5.9,9.1c5.5-4.5,6.8-9.1,15.5-5.9c8.6,3.2,13.6-5,17.3-10.9
						c3.6-5.9,9.1,21.4,9.1,21.4s4.1,6.8,11.4,2.7c7.3-4.1,10.9-16.3,10.9-16.3l-8.2,6.3c0,0,8.6-9.5,5-18.2c0,0-1.4,4.6-4.5,4.3
						c0,0-3.2-23.9-10.9-37.5c-3.5-6.3-25.9-35.8-53.6-29.9C1052.6,99.6,1036.4,122.8,1031.1,135.9z"/>
				</g>
				<path id="XMLID_47_" fill="#ED1C24" d="M979.9,107.3c-28.5-5-44.2-6.8-63.6,4.7c-19.4,11.5-53.9,29.7-84.9,40.6
					c-30.9,10.9-38.8,16.1-64.9,15.9c-26.1-0.2-64.9,17.9-48.5,61.3c16.4,43.4,30.9,60.4,50.9,53.7c20-6.7,58.2-23.6,72.1-26.1
					c13.9-2.4,35.2-7.9,44.2-14.5c9.1-6.7,23-7.9,38.8-6.1c15.8,1.8,63.9,9.3,89.8-36l9.1-60.5
					C1023.1,140.4,1008.4,112.3,979.9,107.3z M930.2,194.2c-28.5-8.7-27.9-44.6-15.8-58.5c12.1-13.9,32.7-26.7,61.5-21.8
					c28.8,4.8,31.2,32.4,31.2,32.4C1004.2,196.8,958.7,203,930.2,194.2z"/>
				<g id="XMLID_4_">
					<path id="XMLID_38_" fill="#F6C69A" d="M1003.9,458.2c0,0-0.8,5.9,18.7,8.2s70.9,12.3,71.4,17.7c0.5,5.5-30.9,5-49.1,4.1
						c-18.2-0.9-42.7,2.5-50.9,0.6s-14.2-14.8-13.5-23.3C981.2,456.8,1003.9,458.2,1003.9,458.2z"/>
					<path id="XMLID_35_" fill="#F6C69A" d="M950.8,145.4c10.7-9.7,25.9-17.6,39.4-13.9c13.5,3.6,22.3,17.8,23,43.6
						s-18.2,53.3-17.6,57.6c0.6,4.2,9.1,78.8,2.4,90.3c-6.7,11.5-33.3,15.8-41.2,4.8c-7.9-10.9-3-22-8.5-42.8
						c-5.5-20.8-13.9-48.7-7.3-70.5C947.8,192.7,939.7,155.4,950.8,145.4z"/>
					<path id="XMLID_37_" fill="#F6C69A" d="M1000.2,312.7c0,0,6.3,17,2.4,46.1c-3.9,29.1-2.6,85.5,1.3,99.4
						c3.9,13.9-11.3,24.2-18.6,17c-7.3-7.3-22.4-74-25.5-86.1c-3-12.1-8.5-63.1-4.8-76.4C958.7,299.3,997.2,297.7,1000.2,312.7z"/>
				</g>
				<g id="XMLID_5_">
					<path id="XMLID_32_" fill="#F6C69A" d="M597.4,263.1c0,0-39.4,17.2-55.8,21.9c-16.4,4.7-68.5,1.6-94,11.9
						c-25.5,10.3-79.4,47.9-98.8,51.5c-19.4,3.6-40.6-1.8-50.3,0c-9.7,1.8-27.3,107.3-18.2,118.2c9.1,10.9,23.6,7.9,17-3
						c-6.7-10.9,36.4-62.4,50.9-72.7c14.5-10.3,33.9-24.2,67.9-29.1c33.9-4.9,66.7-18.8,87.3-18.2c20.6,0.6,46.7,3.6,63-1.2
						c16.4-4.8,68.5-6.1,68.5-6.1L597.4,263.1z"/>
					<path id="XMLID_36_" fill="#27AAE1" d="M335.4,349.7c0,0,14.3-6,13.4-1.3c-0.9,4.7,3.1,30.5,8.6,36c5.5,5.5-8,3.9-16.7,12.8
						c-8.7,9-17.4,26.6-25.5,19.6C307,410,305.8,357.2,335.4,349.7z"/>
					<path id="XMLID_33_" fill="#ED1C24" d="M327.7,392.9c0,0,10.2,3.7,16.2,1.6c7.3-2.7,7.3-2.7,9.1,3.2
						c1.8,5.9-6.6,22.4-26.7,18.7C306.1,412.7,327.7,392.9,327.7,392.9z"/>
					<path id="XMLID_43_" d="M277.8,461.8c-9.8-13.9-4.1-36.4,0-49.4c4.1-13.1,8.6-26.3,7.4-44.1c-0.8-11,3.4-21.6,6.7-28.1
						c-11.5,1.5-15.1,8.1-18.2,13.1c-4.9,7.7-2.4,31.5,0.6,36.4c3,4.8,0,16.4-6.7,22.7c-6.7,6.3-6.7,8.8-6.1,25.8
						c0.6,17,12.1,46.7,29.7,46.7c9.4,0,11.8-5,12.4-11C287.1,475.4,287.1,474.9,277.8,461.8z"/>
					<g id="XMLID_6_">
						<path id="XMLID_9_" d="M326.1,363.2c0.7-0.5,1.4-1,2.1-1.4c5.5-3,7.8-12.1,6.1-15.2c-1.1-1.9-10.5-4.2-20.9-5.6l0,0
							C313.1,347.4,317.4,358.9,326.1,363.2z"/>
						<path id="XMLID_12_" fill="#ED1C24" d="M326.1,363.2c-8.7-4.3-13-15.8-12.7-22.2l0,0c-6.4-0.8-13.2-1.3-18.5-1.1
							c-1.1,0-2.1,0.1-3,0.3c-3.3,6.5-7.4,17.1-6.7,28.1c1.2,17.7-3.2,31-7.4,44.1c-4.1,13.1-9.8,35.5,0,49.4
							c9.2,13.1,9.2,13.6,25.9,12c0.5-5.3-0.4-11.4,0.6-15.6c2.1-9.1,23.4-41.2,24.7-48.4c1.4-7.2-0.1-18.8-6.8-27.9
							C316.4,373.8,321.2,366.8,326.1,363.2z"/>
					</g>
				</g>
				<g id="XMLID_13_">
					<path id="XMLID_31_" d="M781.7,167.9c0,0-29.8-8.2-57.4,0.7c-27.6,8.9-51.8,51.8-68.2,61.3c-16.4,9.5-75.8,34.9-77.6,36.1
						c-1.8,1.2,35.8,98.2,46.1,95.8c10.3-2.4,37.6-17.6,60.6-23c23-5.5,74.6-18.2,90.9-38.8c16.4-20.6,39.3-34.2,39.3-34.2
						S803.6,209.8,781.7,167.9z"/>
					<g id="XMLID_46_">
						<path id="XMLID_52_" fill="#27AAE1" d="M798.4,206.7l-207,95c0.6,1.4,1.1,2.8,1.7,4.2L799.9,211
							C799.4,209.5,798.9,208.1,798.4,206.7z"/>
						<path id="XMLID_55_" fill="#27AAE1" d="M801.6,216l-206.5,94.8c0.6,1.4,1.2,2.8,1.8,4.2l206.1-94.6
							C802.6,219,802.1,217.5,801.6,216z"/>
					</g>
				</g>
			</g>
		</g>
		<g id="XMLID_177_">
			<g id="XMLID_168_">
				<polygon id="XMLID_167_" fill="#7CC9A2" points="1176.7,877.6 202.2,877.6 237.7,776.9 1137.1,776.9 				"/>
				<rect id="XMLID_169_" x="202.2" y="877.6" fill="#A6D7B7" width="974.6" height="9.5"/>
			</g>
			<ellipse id="XMLID_166_" fill="#A5C5B3" cx="686.3" cy="829" rx="466.4" ry="40.1"/>
			<path id="XMLID_123_" fill="#E2B18E" d="M975.6,800.2c0,0-0.7,5.1,16.2,7.1s61.5,10.6,61.9,15.4c0.4,4.7-26.8,4.3-42.6,3.5
				c-15.8-0.8-37.1,2.1-44.2,0.5c-7.1-1.7-12.3-12.8-11.7-20.2C956,799,975.6,800.2,975.6,800.2z"/>
			<path id="XMLID_97_" fill="#F6C69A" d="M1067.1,736.4c0,0-6.1-29.4-31.3-43.6c-25.2-14.2-37.8-23.1-60-18.8
				c-22.1,4.4-60.8,10-93.6,9.9c-32.8,0-41.9,2.2-66.5-6.6c-24.5-8.9-67.1-4.8-66.2,41.6c0.9,46.4,9,67.2,30.1,67.6
				c21.1,0.4,62.7-2.9,76.7-0.5s35.8,4.3,46.6,1.1c10.8-3.2,24.3,0.3,38.6,7.2s57.1,30.1,96.7-3.9L1067.1,736.4z"/>
			<g id="XMLID_92_">
				<path id="XMLID_94_" fill="#F6C69A" d="M1175.5,754.6c0,0-16.8,19.5-20.5,18.6c-3.6-0.9-8.2-2.7-10.5,0
					c-2.3,2.7-5.9,18.2-8.6,20.4c-2.7,2.3-11.8-4.1-11.8-4.1s-4.4,5.8-6.8,4.6c-5.1-2.5-0.7,4.1-7.3,2.2c-4-1.1-9.5,7.7-15,5.5
					c-5.5-2.3-15.9-23.2-23.6-23.4c-7.7-0.2-12.7-4.3-13.6-7.5c-0.9-3.2-10-71.4-10-71.4s13.2,13.2,20.5,13.2s31.4-29.6,53.6-32.7
					C1144.2,676.9,1184.2,696.5,1175.5,754.6z"/>
				<path id="XMLID_93_" fill="#8B3E1E" d="M1076.3,708.4c0,0,8.3,23.1,14.7,23.1s16.4-14.1,27.7-14.5c11.4-0.5,12.3,12.3,9.1,24.1
					c-3.2,11.8,0.5,13.6,5.9,9.1c5.5-4.5,6.8-9.1,15.5-5.9c8.6,3.2,13.6-5,17.3-10.9c3.6-5.9,9.1,21.4,9.1,21.4s4.1,6.8,11.4,2.7
					c7.3-4.1,10.9-16.3,10.9-16.3l-8.2,6.3c0,0,8.6-9.5,5-18.2c0,0-1.4,4.6-4.5,4.3c0,0-3.2-23.9-10.9-37.5
					c-3.5-6.3-25.9-35.8-53.6-29.9S1081.6,695.3,1076.3,708.4z"/>
			</g>
			<path id="XMLID_89_" fill="#ED1C24" d="M1037.4,690.8c-4.7-3.4-27.2-22.7-61.6-16.8c-22.2,3.8-60.8,10-93.6,9.9
				c-32.8,0-41.9,2.2-66.5-6.6c-24.5-8.9-67.1-4.8-66.2,41.6c0.9,46.4,9,67.2,30.1,67.6c21.1,0.4,62.7-2.9,76.7-0.5
				c14,2.4,35.8,4.3,46.6,1.1c10.8-3.2,24.3,0.3,38.6,7.2s57.1,30.1,96.7-3.9l17.6-31.8C1055.9,758.7,1076.9,719,1037.4,690.8z
				 M961.5,756.1c-23.9-17.8-11.4-51.3,4.7-60.4c16.1-9.1,39.8-14.2,65.3,0c25.5,14.2,18.6,41,18.6,41
				C1030.4,783.3,985.5,773.9,961.5,756.1z"/>
			<path id="XMLID_86_" fill="#F6C69A" d="M982.7,813.8c0,0-0.8,5.9,18.7,8.2c19.5,2.3,70.9,12.3,71.4,17.7c0.5,5.5-30.9,5-49.1,4.1
				c-18.2-0.9-42.7,2.5-50.9,0.6c-8.2-1.9-14.2-14.8-13.5-23.3C960,812.4,982.7,813.8,982.7,813.8z"/>
			<path id="XMLID_83_" fill="#F6C69A" d="M1031.8,696.3c9.2,9.2,18,23,17.8,36.7c-0.2,13.8-9.1,24.4-28.2,28.8
				c-19.1,4.4-43.2-10.3-46.2-9.1c-3.1,1.2-57.1,20.1-66.9,15.2c-9.8-4.9-18-30.5-11.3-39.8c6.7-9.3,15.9-6.1,30.4-14.4
				c14.5-8.3,33.7-20.6,51.2-17.2C996,700,1022.2,686.8,1031.8,696.3z"/>
			<path id="XMLID_80_" fill="#F6C69A" d="M920.9,721.1c0,0,12.9,8.6,22.5,31.3s35.8,61.8,45.3,69.6c9.5,7.8,1.2,23.1-8.2,21.9
				c-9.4-1.3-51.9-40.3-59.8-47.3c-8-7-35.2-40.1-38.1-51.4C879.8,733.9,911.7,712.2,920.9,721.1z"/>
			<path id="XMLID_76_" fill="#F6C69A" d="M620.7,708.9c0,0-42.8,3.5-59.8,2.7c-17-0.9-65.3-20.6-92.8-19.1
				c-27.4,1.5-90.4,16.8-110.2,16.8c-24.6,0-44.4-2.6-54.2-2.7c-49.6-0.5-11.2,70.3-14.5,109.8c-1.2,14.2,25.8,22.8,23,10.3
				s11.7-83.1,28.8-88.2c17.1-5,42.6-1.1,76.3,5.2c33.7,6.3,69.2,3.7,88.5,11c19.3,7.2,43,18.5,60,19.2
				c17.1,0.7,66.8,16.4,66.8,16.4L620.7,708.9z"/>
			<g id="XMLID_66_">
				<path id="XMLID_73_" d="M289.3,827.7c-13.4-10.6-14.3-33.7-14-47.4c0.3-13.7,0.8-27.7-5.4-44.4c-3.8-10.4-2.9-21.7-1.6-28.8
					c-10.6,4.7-12.2,12.1-13.7,17.7c-2.5,8.8,6.6,30.9,10.9,34.7c4.3,3.8,4.6,15.7,0,23.7c-4.6,8-3.9,10.3,1.5,26.5
					c5.4,16.1,24.8,41.3,41.7,36.4c9-2.7,10-8.1,8.8-14.1C302,838.2,301.8,837.7,289.3,827.7z"/>
				<g id="XMLID_15_">
					<path id="XMLID_75_" fill="#27AAE1" d="M312.8,703.9c0,0,19.3-1.5,19.7,3.2c0.5,4.8,11,21.8,13.1,29.2c1.7,6-8.5,0.6-14.3,11.7
						c-5.8,11.1-9.1,30.4-18.9,26C302.6,769.7,286.5,719.4,312.8,703.9z"/>
					<path id="XMLID_74_" fill="#ED1C24" d="M317.6,747.5c0,0,10.9,0.7,16-3.1c6.2-4.6,6.2-4.6,9.6,0.5c3.4,5.2,0,23.3-20.3,25.5
						C302.5,772.6,317.6,747.5,317.6,747.5z"/>
					<g id="XMLID_68_">
						<path id="XMLID_72_" d="M307.6,719.5c0.5-0.7,1.1-1.4,1.7-1.9c4.4-4.4,4.1-13.8,1.5-16.3c-1.6-1.5-11.3-1.1-21.6,0.6l0,0
							C290.7,708,298,717.8,307.6,719.5z"/>
						<path id="XMLID_70_" fill="#ED1C24" d="M307.6,719.5c-9.6-1.6-17-11.5-18.4-17.7l0,0c-6.4,1-13,2.5-18.1,4.2
							c-1,0.3-1.9,0.7-2.8,1.1c-1.3,7.1-2.3,18.5,1.6,28.8c6.2,16.7,5.7,30.7,5.4,44.4c-0.3,13.7,0.6,36.8,14,47.4
							c12.6,10,12.7,10.5,28.2,4.2c-1-5.2-3.6-10.8-3.9-15.2c-0.6-9.3,10.7-46.1,10-53.4c-0.7-7.3-5.5-18-14.4-24.9
							C301.3,732.5,303.9,724.4,307.6,719.5z"/>
					</g>
				</g>
			</g>
			<g id="XMLID_3_">
				<path id="XMLID_59_" d="M830.4,681.8c0,0-25.3-17.7-54.3-18.5c-29-0.8-66.1,31.5-84.7,35c-18.6,3.5-83.1,7.6-85.2,8.2
					c-2.1,0.5,0.9,104.5,11.4,105.7c10.5,1.2,41.3-4,64.8-1.5c23.5,2.5,76.4,7.8,98.7-6.2c22.3-14,48.5-19.1,48.5-19.1
					S837.1,728.6,830.4,681.8z"/>
				<g id="XMLID_34_">
					<path id="XMLID_42_" fill="#27AAE1" d="M833.2,723.9l-226.9,20.4c0.1,1.5,0.2,3,0.2,4.5l226.6-20.4
						C833.2,726.9,833.2,725.4,833.2,723.9z"/>
					<path id="XMLID_41_" fill="#27AAE1" d="M833.1,733.8l-226.3,20.4c0.1,1.5,0.2,3,0.3,4.5L833,738.4
						C833,736.9,833.1,735.4,833.1,733.8z"/>
				</g>
			</g>
		</g>
	</g>
</g>
</svg>
